<?xml version="1.0" standalone="no"?>
<!DOCTYPE svg PUBLIC "-//W3C//DTD SVG 20010904//EN"
 "http://www.w3.org/TR/2001/REC-SVG-20010904/DTD/svg10.dtd">
<svg version="1.0" xmlns="http://www.w3.org/2000/svg"
 width="700.000000pt" height="700.000000pt" viewBox="0 0 700.000000 700.000000"
 preserveAspectRatio="xMidYMid meet">
<metadata>
Created by potrace 1.14, written by Peter Selinger 2001-2017
</metadata>
<g transform="translate(0.000000,700.000000) scale(0.100000,-0.100000)"
fill="#000000" stroke="none">
<path d="M3446 6729 c-248 -80 -860 -386 -1382 -691 -61 -36 -117 -68 -125
-71 -8 -4 -27 -15 -44 -26 -16 -10 -95 -56 -175 -103 -80 -47 -337 -198 -571
-336 -235 -138 -441 -259 -459 -269 -18 -10 -40 -22 -49 -28 -9 -5 -37 -22
-62 -37 l-46 -27 0 -1640 0 -1641 41 -24 c23 -13 57 -33 76 -44 19 -10 150
-86 290 -167 140 -81 273 -157 295 -169 22 -12 117 -67 210 -121 487 -281 875
-504 955 -547 36 -20 92 -50 125 -68 201 -110 449 -225 595 -278 152 -55 220
-72 375 -97 77 -12 323 -13 375 -1 14 3 51 11 82 16 88 16 289 80 373 119 113
53 307 149 375 186 90 49 461 272 593 356 43 27 80 49 82 49 2 0 23 13 47 29
79 52 211 137 438 281 124 79 263 167 310 197 47 30 127 81 178 114 l92 58 -2
1742 -3 1742 -30 16 c-16 9 -41 24 -55 32 -33 21 -249 149 -275 163 -11 6 -69
41 -130 77 -60 37 -234 140 -385 229 -151 90 -360 215 -465 278 -291 176 -440
262 -670 384 -90 48 -335 171 -345 173 -3 1 -36 16 -75 34 -108 50 -257 107
-329 125 -83 21 -129 18 -230 -15z m1122 -1108 c66 -21 251 -111 322 -156 23
-14 56 -34 73 -44 60 -34 267 -161 395 -243 353 -225 477 -340 550 -515 35
-82 53 -171 67 -323 5 -54 5 -436 0 -535 -1 -38 -6 -133 -9 -210 -4 -77 -9
-174 -11 -215 -2 -41 -6 -136 -10 -210 -3 -74 -8 -164 -10 -200 -2 -36 -7
-135 -11 -220 -4 -85 -8 -175 -9 -200 -1 -25 -6 -115 -10 -200 -8 -153 -12
-223 -14 -247 0 -7 -12 -15 -26 -19 -14 -3 -25 -10 -25 -15 0 -5 -4 -9 -9 -9
-5 0 -183 -102 -397 -226 -214 -125 -409 -238 -434 -252 -25 -14 -76 -44 -115
-67 -38 -22 -77 -44 -85 -48 -8 -4 -44 -25 -79 -47 -34 -22 -67 -40 -72 -40
-5 0 -9 -4 -9 -10 0 -5 -4 -10 -9 -10 -5 0 -90 -49 -189 -109 -99 -59 -186
-111 -193 -115 -8 -3 -26 -14 -41 -24 -15 -9 -102 -62 -194 -117 -92 -55 -183
-110 -203 -122 -20 -13 -53 -32 -73 -43 l-36 -20 -79 44 c-43 23 -107 59 -143
78 -36 19 -85 47 -110 60 -69 38 -257 141 -330 180 -125 68 -185 101 -215 118
-16 10 -66 37 -110 60 -107 57 -184 99 -220 120 -16 10 -70 39 -120 65 -253
134 -582 333 -710 429 -67 50 -179 161 -220 216 -103 141 -164 331 -190 600
-3 36 -8 81 -10 100 -2 19 -7 73 -10 120 -3 47 -8 101 -10 120 -22 192 -27
523 -9 608 39 190 138 212 421 92 89 -38 360 -174 553 -277 41 -22 140 -75
220 -118 80 -43 182 -97 228 -122 l82 -44 0 168 c-1 304 9 1077 14 1106 9 59
29 133 41 157 56 109 169 105 435 -15 105 -48 430 -211 550 -277 25 -14 95
-51 155 -83 61 -32 130 -69 155 -83 106 -58 173 -92 175 -90 2 2 5 271 8 598
3 327 9 615 12 640 34 244 111 305 303 241z"/>
</g>
</svg>
